{"title":"Bahar S01E04.720p.HDTV.X264.ARI Greek Subs","uid":15167567,"size":742107013,"categoryP":"video","categoryS":"tv_shows","magnet":"?xt=urn:btih:985d8e49b384867bb7cbbcd6dbf93055b087c790&amp;dn=Bahar+S01E04.720p.HDTV.X264.ARI+Greek+Subs&amp;tr=udp%3A%2F%2Ftracker.leechers-paradise.org%3A6969&amp;tr=udp%3A%2F%2Fzer0day.ch%3A1337&amp;tr=udp%3A%2F%2Fopen.demonii.com%3A1337&amp;tr=udp%3A%2F%2Ftracker.coppersurfer.tk%3A6969&amp;tr=udp%3A%2F%2Fexodus.desync.com%3A6969","seeders":1,"leechers":0,"uploader":"Aris2015","files":1,"time":1467362145,"description":"General\r\nComplete name               : Bahar S01E04.HDTV.720P.X264.ARI.mp4\r\nFormat                      : MPEG-4\r\nFormat profile              : Base Media\r\nCodec ID                    : isom (isom/iso2/avc1/mp41)\r\nFile size                   : 708 MiB\r\nDuration                    : 45mn 39s\r\nOverall bit rate mode       : Variable\r\nOverall bit rate            : 2 167 Kbps\r\nMovie name                  : Bahar S01E04.720p.HDTV.X264.ARI\r\nPerformer                   : ARI\r\nWriting application         : Lavf57.37.100\r\nCopyright                   : STAR HDTV\r\n\r\nVideo\r\nID                          : 1\r\nFormat                      : AVC\r\nFormat/Info                 : Advanced Video Codec\r\nFormat profile              :   \r\nFormat settings, CABAC      : Yes\r\nFormat settings, ReFrames   : 8 frames\r\nCodec ID                    : avc1\r\nCodec ID/Info               : Advanced Video Coding\r\nDuration                    : 45mn 39s\r\nBit rate mode               : Variable\r\nBit rate                    : 2 000 Kbps\r\nMaximum bit rate            : 17.5 Mbps\r\nWidth                       : 1 280 pixels\r\nHeight                      : 720 pixels\r\nDisplay aspect ratio        : 16:9\r\nFrame rate mode             : Constant\r\nFrame rate                  : 25.000 fps\r\nColor space                 : YUV\r\nChroma subsampling          : 4:2:0\r\nBit depth                   : 8 bits\r\nScan type                   : Progressive\r\nBits/(Pixel*Frame)          : 0.087\r\nStream size                 : 654 MiB (92%)\r\nWriting library             : x264 core 148 r2643\r\n\r\n\r\nAudio\r\nID                          : 2\r\nFormat                      : AAC\r\nFormat/Info                 : Advanced Audio Codec\r\nFormat profile              : LC\r\nCodec ID                    : 40\r\nDuration                    : 45mn 39s\r\nDuration_LastFrame          : -8ms\r\nBit rate mode               : Constant\r\nBit rate                    : 160 Kbps\r\nChannel(s)                  : 2 channels\r\nChannel positions           : Front: L R\r\nSampling rate               : 48.0 KHz\r\nFrame rate                  : 46.875 fps (1024 spf)\r\nCompression mode            : Lossy\r\nStream size                 : 52.2 MiB (7%)\r\nLanguage                    : Turkish\r\nDefault                     : Yes","torrent":{"xt":"urn:btih:985d8e49b384867bb7cbbcd6dbf93055b087c790","amp;dn":"Bahar+S01E04.720p.HDTV.X264.ARI+Greek+Subs","amp;tr":["udp%3A%2F%2Ftracker.leechers-paradise.org%3A6969","udp%3A%2F%2Fzer0day.ch%3A1337","udp%3A%2F%2Fopen.demonii.com%3A1337","udp%3A%2F%2Ftracker.coppersurfer.tk%3A6969","udp%3A%2F%2Fexodus.desync.com%3A6969"],"infoHash":"985d8e49b384867bb7cbbcd6dbf93055b087c790","infoHashBuffer":{"type":"Buffer","data":[152,93,142,73,179,132,134,123,183,203,188,214,219,249,48,85,176,135,199,144]},"announce":[],"urlList":[]}}